<svg viewBox="0 0 1000 1000" xmlns="http://www.w3.org/2000/svg" class="europe-map">
    <!-- Portugal -->
    <path d="M 185 520 L 190 480 L 200 450 L 210 420 L 215 390 L 220 370 L 225 360 L 218 365 L 210 380 L 200 400 L 190 430 L 185 460 L 180 490 L 175 520 L 172 545 L 175 560 L 180 555 Z" class="map-country"/>

    <!-- Spain -->
    <path d="M 225 360 L 240 350 L 260 345 L 285 342 L 310 345 L 335 352 L 360 365 L 380 380 L 395 400 L 405 420 L 410 445 L 408 470 L 400 490 L 385 505 L 365 515 L 340 520 L 315 522 L 290 520 L 265 515 L 245 505 L 230 490 L 220 470 L 215 450 L 218 430 L 220 410 L 222 385 L 225 360 Z" class="map-country"/>

    <!-- France -->
    <path d="M 360 365 L 380 355 L 405 350 L 425 348 L 445 350 L 462 358 L 475 370 L 485 385 L 490 405 L 488 425 L 482 445 L 470 465 L 455 480 L 438 490 L 418 495 L 400 490 L 385 480 L 375 465 L 368 445 L 365 425 L 363 405 L 360 385 Z" class="map-country"/>

    <!-- UK -->
    <path d="M 355 240 L 370 235 L 385 238 L 398 245 L 408 258 L 415 275 L 418 295 L 415 315 L 408 330 L 395 340 L 380 343 L 365 340 L 352 332 L 343 318 L 338 300 L 337 280 L 340 260 L 348 245 Z" class="map-country"/>

    <!-- Ireland -->
    <path d="M 295 260 L 310 255 L 325 258 L 335 268 L 340 283 L 338 300 L 332 315 L 320 325 L 305 328 L 290 322 L 280 310 L 275 295 L 278 278 L 287 265 Z" class="map-country"/>

    <!-- Belgium -->
    <path d="M 445 310 L 458 308 L 470 312 L 478 322 L 480 335 L 475 345 L 465 350 L 452 348 L 442 340 L 438 328 L 441 318 Z" class="map-country"/>

    <!-- Netherlands -->
    <path d="M 458 280 L 472 278 L 485 282 L 492 292 L 492 305 L 485 315 L 472 318 L 458 315 L 450 305 L 448 292 L 452 285 Z" class="map-country"/>

    <!-- Germany -->
    <path d="M 485 282 L 505 278 L 528 280 L 548 288 L 565 302 L 578 320 L 585 342 L 587 365 L 583 388 L 573 408 L 558 425 L 538 435 L 518 438 L 498 435 L 480 425 L 468 410 L 460 390 L 458 368 L 462 345 L 470 325 L 478 305 L 485 290 Z" class="map-country"/>

    <!-- Poland -->
    <path d="M 587 265 L 610 262 L 635 265 L 658 275 L 675 290 L 685 310 L 690 332 L 688 355 L 680 375 L 665 390 L 645 398 L 623 400 L 600 395 L 582 382 L 572 363 L 568 342 L 570 320 L 575 298 L 582 280 Z" class="map-country"/>

    <!-- Czech Republic -->
    <path d="M 565 360 L 582 358 L 598 362 L 610 372 L 615 385 L 612 398 L 602 408 L 587 410 L 572 406 L 560 395 L 557 382 L 560 370 Z" class="map-country"/>

    <!-- Austria -->
    <path d="M 545 395 L 562 393 L 580 397 L 595 405 L 605 418 L 608 432 L 602 445 L 590 452 L 573 453 L 556 448 L 543 438 L 538 423 L 540 408 Z" class="map-country"/>

    <!-- Switzerland -->
    <path d="M 490 405 L 505 403 L 518 407 L 527 417 L 528 430 L 522 440 L 510 445 L 496 443 L 485 435 L 482 423 L 486 413 Z" class="map-country"/>

    <!-- Italy -->
    <path d="M 490 445 L 505 440 L 518 442 L 530 448 L 540 460 L 545 478 L 548 500 L 545 525 L 538 548 L 528 570 L 515 590 L 500 605 L 485 615 L 470 620 L 458 618 L 450 610 L 445 595 L 443 575 L 445 555 L 450 535 L 458 515 L 468 495 L 478 475 L 485 460 Z" class="map-country"/>

    <!-- Denmark -->
    <path d="M 505 240 L 520 238 L 535 242 L 545 252 L 548 265 L 543 278 L 532 285 L 517 286 L 503 280 L 497 268 L 498 253 Z" class="map-country"/>

    <!-- Sweden -->
    <path d="M 555 115 L 570 110 L 588 112 L 605 120 L 618 135 L 628 155 L 633 178 L 635 202 L 632 228 L 625 252 L 615 272 L 602 287 L 587 295 L 570 298 L 553 293 L 540 282 L 532 265 L 528 245 L 527 223 L 530 200 L 535 178 L 542 155 L 550 135 Z" class="map-country"/>

    <!-- Norway -->
    <path d="M 505 95 L 525 88 L 545 85 L 565 88 L 582 98 L 595 115 L 602 138 L 605 165 L 603 192 L 597 215 L 587 235 L 573 250 L 558 258 L 542 260 L 527 255 L 515 243 L 507 225 L 502 202 L 500 178 L 502 152 L 507 125 L 512 108 Z" class="map-country"/>

    <!-- Finland -->
    <path d="M 615 85 L 635 80 L 658 82 L 680 92 L 695 110 L 705 135 L 710 162 L 708 188 L 700 210 L 687 228 L 670 240 L 650 245 L 630 242 L 615 230 L 605 212 L 600 188 L 600 162 L 605 135 L 610 110 Z" class="map-country"/>

    <!-- Greece -->
    <path d="M 620 540 L 638 535 L 655 538 L 668 548 L 675 563 L 678 580 L 673 598 L 662 610 L 645 618 L 625 620 L 608 615 L 595 603 L 588 585 L 587 565 L 593 548 L 605 540 Z" class="map-country"/>

    <!-- Milano node -->
    <g class="city-node">
        <circle class="city-node-outer" cx="505" cy="465" r="12"/>
        <circle class="city-node-inner" cx="505" cy="465" r="4"/>
        <text class="city-label" x="505" y="485" text-anchor="middle">Milano</text>
        <title>Milano</title>
    </g>

    <!-- Berlin node -->
    <g class="city-node">
        <circle class="city-node-outer" cx="560" cy="305" r="12"/>
        <circle class="city-node-inner" cx="560" cy="305" r="4"/>
        <text class="city-label" x="560" y="325" text-anchor="middle">Berlin</text>
        <title>Berlin</title>
    </g>
</svg>
